<?xml version="1.0" encoding="UTF-8"?>
<!DOCTYPE svg PUBLIC "-//W3C//DTD SVG 1.1//EN" "http://www.w3.org/Graphics/SVG/1.1/DTD/svg11.dtd">
<svg xmlns="http://www.w3.org/2000/svg" xml:space="preserve" width="181px" height="136px" version="1.1" style="shape-rendering:geometricPrecision; text-rendering:geometricPrecision; image-rendering:optimizeQuality; fill-rule:evenodd; clip-rule:evenodd"
viewBox="0 0 20.36 15.3"
 xmlns:xlink="http://www.w3.org/1999/xlink">
 <defs>
  <style type="text/css">
   <![CDATA[
    .fil0 {fill:#F6C521}
    .fil2 {fill:#FF6600;fill-rule:nonzero}
    .fil1 {fill:white;fill-rule:nonzero}
   ]]>
  </style>
 </defs>
  <g id="_2407100453456">
   <path class="fil0" d="M3.14 1.88l2.79 0 0 9.38c0,0.79 -0.2,1.43 -0.6,1.91 -0.4,0.48 -0.92,0.72 -1.55,0.72 -0.68,0 -1.2,-0.2 -1.56,-0.6 -0.37,-0.4 -0.55,-1.01 -0.55,-1.84l-0.03 0 -1.64 0 0 -6.44c0,-1.72 1.41,-3.13 3.14,-3.13zm4.51 0l5.23 0c-0.5,0.17 -0.94,0.43 -1.34,0.78 -0.78,0.69 -1.17,1.56 -1.17,2.6 0,0.99 0.37,1.81 1.09,2.46 0.72,0.65 1.73,1.14 3.02,1.48 1.04,0.28 1.77,0.63 2.18,1.04 0.41,0.41 0.62,0.91 0.62,1.52 0,0.66 -0.24,1.18 -0.71,1.56 -0.47,0.38 -1.12,0.57 -1.93,0.57 -0.76,0 -1.45,-0.22 -2.05,-0.68 -0.61,-0.45 -0.91,-1.09 -0.91,-1.93l-0.07 0 -1.53 0 -0.04 0 -0.01 0.06c-0.03,1 0.28,1.84 0.93,2.51 0.48,0.49 1.16,0.9 1.81,1.13 0.38,0.14 0.76,0.23 1.16,0.28l-9.51 0c0.86,-0.12 1.57,-0.47 2.15,-1.05 0.72,-0.73 1.08,-1.72 1.08,-2.95l0 -9.38zm11.28 3.76l0 5.34 -0.01 -0.03 0 -0.01 -0.01 -0.02 0 -0.02 0 -0.01 -0.01 -0.03 0 -0.01 -0.01 -0.02 0 -0.02 -0.01 -0.02 0 -0.02 -0.01 -0.04 0 0 -0.01 -0.03 0 -0.01 -0.01 -0.02 -0.01 -0.02 0 -0.01 -0.01 -0.03 -0.01 -0.03 0 -0.01 -0.01 -0.02c-0.15,-0.46 -0.4,-0.88 -0.75,-1.25l0 0 -0.03 -0.03 0 0 -0.01 -0.01 -0.03 -0.03 -0.02 -0.02 -0.01 -0.01 -0.02 -0.02c-0.67,-0.65 -1.62,-1.14 -2.87,-1.48 -1.01,-0.28 -1.75,-0.61 -2.22,-0.98 -0.5,-0.39 -0.76,-0.87 -0.76,-1.49 0,-1.17 0.72,-1.93 1.76,-2.13 0.87,-0.17 1.8,-0.05 2.5,0.53 0.57,0.47 0.91,1.18 0.91,2.01l0.04 0 1.63 0z"/>
   <path class="fil1" d="M17.28 11.76c0,-0.61 -0.21,-1.11 -0.62,-1.52 -0.41,-0.41 -1.14,-0.76 -2.18,-1.04 -1.29,-0.34 -2.3,-0.83 -3.02,-1.48 -0.72,-0.65 -1.09,-1.47 -1.09,-2.46 0,-1.04 0.39,-1.91 1.17,-2.6 0.78,-0.7 1.79,-1.04 3.04,-1.04 1.33,0 2.4,0.39 3.19,1.19 0.8,0.79 1.18,1.72 1.16,2.78l0 0.05 -1.67 0c0,-0.75 -0.25,-1.38 -0.75,-1.87 -0.51,-0.49 -1.15,-0.74 -1.93,-0.74 -0.8,0 -1.42,0.2 -1.85,0.61 -0.42,0.41 -0.64,0.94 -0.64,1.59 0,0.58 0.24,1.06 0.7,1.45 0.47,0.39 1.23,0.73 2.28,1.02 1.28,0.35 2.26,0.86 2.92,1.53 0.67,0.68 1.01,1.52 1.01,2.51 0,1.07 -0.41,1.93 -1.21,2.58 -0.81,0.66 -1.86,0.98 -3.15,0.98 -1.23,0 -2.31,-0.36 -3.25,-1.08 -0.94,-0.72 -1.39,-1.68 -1.36,-2.88l0.01 -0.06 1.64 0c0,0.84 0.3,1.48 0.91,1.93 0.6,0.46 1.29,0.68 2.05,0.68 0.81,0 1.46,-0.19 1.93,-0.57 0.47,-0.38 0.71,-0.9 0.71,-1.56z"/>
   <path class="fil1" d="M7.65 1.88l0 9.38c0,1.23 -0.36,2.22 -1.08,2.95 -0.72,0.73 -1.65,1.09 -2.79,1.09 -1.17,0 -2.1,-0.32 -2.79,-0.97 -0.68,-0.65 -1.02,-1.59 -0.99,-2.83l0 -0.05 1.67 0c0,0.83 0.18,1.44 0.55,1.84 0.36,0.4 0.88,0.6 1.56,0.6 0.63,0 1.15,-0.24 1.55,-0.72 0.4,-0.48 0.6,-1.12 0.6,-1.91l0 -9.38 1.72 0z"/>
   <path class="fil2" d="M5.99 0l11.26 0c0.85,0 1.63,0.35 2.19,0.91 0.57,0.56 0.92,1.34 0.92,2.2l0 6.32c0,0.86 -0.35,1.63 -0.92,2.19l0 0.01c-0.56,0.56 -1.34,0.91 -2.19,0.91l-14.36 0 0 -9.43c0,-0.86 0.35,-1.64 0.91,-2.2 0.56,-0.56 1.34,-0.91 2.19,-0.91zm11.26 0.63l-11.26 0c-0.68,0 -1.3,0.28 -1.75,0.73 -0.44,0.45 -0.72,1.07 -0.72,1.75l0 8.8 13.73 0c0.68,0 1.3,-0.28 1.75,-0.73 0.45,-0.45 0.72,-1.07 0.72,-1.75l0 -6.32c0,-0.68 -0.27,-1.3 -0.72,-1.75 -0.45,-0.45 -1.07,-0.73 -1.75,-0.73z"/>
  </g>
</svg>
